# Tiled2Unity generated file. Do not modify by hand.
# Wavefront file for 'testarea_mesh_0003.obj'

# Vertices (Count = 8)
v -512 -384 0
v -528 -384 0
v -528 -368 0
v -512 -368 0
v -512 -400 0
v -528 -400 0
v -528 -384 0
v -512 -384 0

# Texture cooridinates (Count = 8)
vt 0.6322314 0.9372624
vt 0.6487603 0.9372624
vt 0.6487603 0.9676806
vt 0.6322314 0.9676806
vt 0.08780992 0.4201521
vt 0.1043388 0.4201521
vt 0.1043388 0.4505703
vt 0.08780992 0.4505703

# Normal
vn 0 0 -1

# Mesh description
g testarea_mesh_0003

# Faces
f 1/1/1 2/2/1 3/3/1 4/4/1
f 5/5/1 6/6/1 7/7/1 8/8/1

