# Tiled2Unity generated file. Do not modify by hand.
# Wavefront file for 'testarea_mesh_0002.obj'

# Vertices (Count = 832)
v -432 -288 0
v -448 -288 0
v -448 -272 0
v -432 -272 0
v -416 -288 0
v -432 -288 0
v -432 -272 0
v -416 -272 0
v -400 -288 0
v -416 -288 0
v -416 -272 0
v -400 -272 0
v -384 -288 0
v -400 -288 0
v -400 -272 0
v -384 -272 0
v -432 -304 0
v -448 -304 0
v -448 -288 0
v -432 -288 0
v -416 -304 0
v -432 -304 0
v -432 -288 0
v -416 -288 0
v -400 -304 0
v -416 -304 0
v -416 -288 0
v -400 -288 0
v -384 -304 0
v -400 -304 0
v -400 -288 0
v -384 -288 0
v -368 -304 0
v -384 -304 0
v -384 -288 0
v -368 -288 0
v -352 -304 0
v -368 -304 0
v -368 -288 0
v -352 -288 0
v -432 -320 0
v -448 -320 0
v -448 -304 0
v -432 -304 0
v -416 -320 0
v -432 -320 0
v -432 -304 0
v -416 -304 0
v -400 -320 0
v -416 -320 0
v -416 -304 0
v -400 -304 0
v -384 -320 0
v -400 -320 0
v -400 -304 0
v -384 -304 0
v -368 -320 0
v -384 -320 0
v -384 -304 0
v -368 -304 0
v -352 -320 0
v -368 -320 0
v -368 -304 0
v -352 -304 0
v -432 -336 0
v -448 -336 0
v -448 -320 0
v -432 -320 0
v -416 -336 0
v -432 -336 0
v -432 -320 0
v -416 -320 0
v -400 -336 0
v -416 -336 0
v -416 -320 0
v -400 -320 0
v -384 -336 0
v -400 -336 0
v -400 -320 0
v -384 -320 0
v -368 -336 0
v -384 -336 0
v -384 -320 0
v -368 -320 0
v -352 -336 0
v -368 -336 0
v -368 -320 0
v -352 -320 0
v -336 -336 0
v -352 -336 0
v -352 -320 0
v -336 -320 0
v -448 -352 0
v -464 -352 0
v -464 -336 0
v -448 -336 0
v -432 -352 0
v -448 -352 0
v -448 -336 0
v -432 -336 0
v -416 -352 0
v -432 -352 0
v -432 -336 0
v -416 -336 0
v -400 -352 0
v -416 -352 0
v -416 -336 0
v -400 -336 0
v -384 -352 0
v -400 -352 0
v -400 -336 0
v -384 -336 0
v -368 -352 0
v -384 -352 0
v -384 -336 0
v -368 -336 0
v -352 -352 0
v -368 -352 0
v -368 -336 0
v -352 -336 0
v -336 -352 0
v -352 -352 0
v -352 -336 0
v -336 -336 0
v -528 -368 0
v -544 -368 0
v -544 -352 0
v -528 -352 0
v -512 -368 0
v -528 -368 0
v -528 -352 0
v -512 -352 0
v -496 -368 0
v -512 -368 0
v -512 -352 0
v -496 -352 0
v -448 -368 0
v -464 -368 0
v -464 -352 0
v -448 -352 0
v -432 -368 0
v -448 -368 0
v -448 -352 0
v -432 -352 0
v -416 -368 0
v -432 -368 0
v -432 -352 0
v -416 -352 0
v -400 -368 0
v -416 -368 0
v -416 -352 0
v -400 -352 0
v -384 -368 0
v -400 -368 0
v -400 -352 0
v -384 -352 0
v -368 -368 0
v -384 -368 0
v -384 -352 0
v -368 -352 0
v -352 -368 0
v -368 -368 0
v -368 -352 0
v -352 -352 0
v -336 -368 0
v -352 -368 0
v -352 -352 0
v -336 -352 0
v -320 -368 0
v -336 -368 0
v -336 -352 0
v -320 -352 0
v -304 -368 0
v -320 -368 0
v -320 -352 0
v -304 -352 0
v -528 -384 0
v -544 -384 0
v -544 -368 0
v -528 -368 0
v -512 -384 0
v -528 -384 0
v -528 -368 0
v -512 -368 0
v -496 -384 0
v -512 -384 0
v -512 -368 0
v -496 -368 0
v -464 -384 0
v -480 -384 0
v -480 -368 0
v -464 -368 0
v -448 -384 0
v -464 -384 0
v -464 -368 0
v -448 -368 0
v -432 -384 0
v -448 -384 0
v -448 -368 0
v -432 -368 0
v -416 -384 0
v -432 -384 0
v -432 -368 0
v -416 -368 0
v -400 -384 0
v -416 -384 0
v -416 -368 0
v -400 -368 0
v -384 -384 0
v -400 -384 0
v -400 -368 0
v -384 -368 0
v -368 -384 0
v -384 -384 0
v -384 -368 0
v -368 -368 0
v -352 -384 0
v -368 -384 0
v -368 -368 0
v -352 -368 0
v -336 -384 0
v -352 -384 0
v -352 -368 0
v -336 -368 0
v -320 -384 0
v -336 -384 0
v -336 -368 0
v -320 -368 0
v -304 -384 0
v -320 -384 0
v -320 -368 0
v -304 -368 0
v -528 -400 0
v -544 -400 0
v -544 -384 0
v -528 -384 0
v -512 -400 0
v -528 -400 0
v -528 -384 0
v -512 -384 0
v -496 -400 0
v -512 -400 0
v -512 -384 0
v -496 -384 0
v -480 -400 0
v -496 -400 0
v -496 -384 0
v -480 -384 0
v -464 -400 0
v -480 -400 0
v -480 -384 0
v -464 -384 0
v -448 -400 0
v -464 -400 0
v -464 -384 0
v -448 -384 0
v -432 -400 0
v -448 -400 0
v -448 -384 0
v -432 -384 0
v -416 -400 0
v -432 -400 0
v -432 -384 0
v -416 -384 0
v -400 -400 0
v -416 -400 0
v -416 -384 0
v -400 -384 0
v -384 -400 0
v -400 -400 0
v -400 -384 0
v -384 -384 0
v -368 -400 0
v -384 -400 0
v -384 -384 0
v -368 -384 0
v -352 -400 0
v -368 -400 0
v -368 -384 0
v -352 -384 0
v -336 -400 0
v -352 -400 0
v -352 -384 0
v -336 -384 0
v -320 -400 0
v -336 -400 0
v -336 -384 0
v -320 -384 0
v -304 -400 0
v -320 -400 0
v -320 -384 0
v -304 -384 0
v -528 -416 0
v -544 -416 0
v -544 -400 0
v -528 -400 0
v -512 -416 0
v -528 -416 0
v -528 -400 0
v -512 -400 0
v -496 -416 0
v -512 -416 0
v -512 -400 0
v -496 -400 0
v -480 -416 0
v -496 -416 0
v -496 -400 0
v -480 -400 0
v -464 -416 0
v -480 -416 0
v -480 -400 0
v -464 -400 0
v -448 -416 0
v -464 -416 0
v -464 -400 0
v -448 -400 0
v -432 -416 0
v -448 -416 0
v -448 -400 0
v -432 -400 0
v -416 -416 0
v -432 -416 0
v -432 -400 0
v -416 -400 0
v -400 -416 0
v -416 -416 0
v -416 -400 0
v -400 -400 0
v -384 -416 0
v -400 -416 0
v -400 -400 0
v -384 -400 0
v -368 -416 0
v -384 -416 0
v -384 -400 0
v -368 -400 0
v -352 -416 0
v -368 -416 0
v -368 -400 0
v -352 -400 0
v -336 -416 0
v -352 -416 0
v -352 -400 0
v -336 -400 0
v -320 -416 0
v -336 -416 0
v -336 -400 0
v -320 -400 0
v -304 -416 0
v -320 -416 0
v -320 -400 0
v -304 -400 0
v -528 -432 0
v -544 -432 0
v -544 -416 0
v -528 -416 0
v -512 -432 0
v -528 -432 0
v -528 -416 0
v -512 -416 0
v -496 -432 0
v -512 -432 0
v -512 -416 0
v -496 -416 0
v -480 -432 0
v -496 -432 0
v -496 -416 0
v -480 -416 0
v -464 -432 0
v -480 -432 0
v -480 -416 0
v -464 -416 0
v -448 -432 0
v -464 -432 0
v -464 -416 0
v -448 -416 0
v -432 -432 0
v -448 -432 0
v -448 -416 0
v -432 -416 0
v -416 -432 0
v -432 -432 0
v -432 -416 0
v -416 -416 0
v -400 -432 0
v -416 -432 0
v -416 -416 0
v -400 -416 0
v -384 -432 0
v -400 -432 0
v -400 -416 0
v -384 -416 0
v -368 -432 0
v -384 -432 0
v -384 -416 0
v -368 -416 0
v -352 -432 0
v -368 -432 0
v -368 -416 0
v -352 -416 0
v -336 -432 0
v -352 -432 0
v -352 -416 0
v -336 -416 0
v -320 -432 0
v -336 -432 0
v -336 -416 0
v -320 -416 0
v -304 -432 0
v -320 -432 0
v -320 -416 0
v -304 -416 0
v -512 -448 0
v -528 -448 0
v -528 -432 0
v -512 -432 0
v -496 -448 0
v -512 -448 0
v -512 -432 0
v -496 -432 0
v -480 -448 0
v -496 -448 0
v -496 -432 0
v -480 -432 0
v -464 -448 0
v -480 -448 0
v -480 -432 0
v -464 -432 0
v -448 -448 0
v -464 -448 0
v -464 -432 0
v -448 -432 0
v -432 -448 0
v -448 -448 0
v -448 -432 0
v -432 -432 0
v -416 -448 0
v -432 -448 0
v -432 -432 0
v -416 -432 0
v -400 -448 0
v -416 -448 0
v -416 -432 0
v -400 -432 0
v -384 -448 0
v -400 -448 0
v -400 -432 0
v -384 -432 0
v -368 -448 0
v -384 -448 0
v -384 -432 0
v -368 -432 0
v -352 -448 0
v -368 -448 0
v -368 -432 0
v -352 -432 0
v -336 -448 0
v -352 -448 0
v -352 -432 0
v -336 -432 0
v -320 -448 0
v -336 -448 0
v -336 -432 0
v -320 -432 0
v -304 -448 0
v -320 -448 0
v -320 -432 0
v -304 -432 0
v -512 -464 0
v -528 -464 0
v -528 -448 0
v -512 -448 0
v -496 -464 0
v -512 -464 0
v -512 -448 0
v -496 -448 0
v -480 -464 0
v -496 -464 0
v -496 -448 0
v -480 -448 0
v -464 -464 0
v -480 -464 0
v -480 -448 0
v -464 -448 0
v -448 -464 0
v -464 -464 0
v -464 -448 0
v -448 -448 0
v -432 -464 0
v -448 -464 0
v -448 -448 0
v -432 -448 0
v -416 -464 0
v -432 -464 0
v -432 -448 0
v -416 -448 0
v -400 -464 0
v -416 -464 0
v -416 -448 0
v -400 -448 0
v -384 -464 0
v -400 -464 0
v -400 -448 0
v -384 -448 0
v -368 -464 0
v -384 -464 0
v -384 -448 0
v -368 -448 0
v -352 -464 0
v -368 -464 0
v -368 -448 0
v -352 -448 0
v -336 -464 0
v -352 -464 0
v -352 -448 0
v -336 -448 0
v -320 -464 0
v -336 -464 0
v -336 -448 0
v -320 -448 0
v -304 -464 0
v -320 -464 0
v -320 -448 0
v -304 -448 0
v -512 -480 0
v -528 -480 0
v -528 -464 0
v -512 -464 0
v -496 -480 0
v -512 -480 0
v -512 -464 0
v -496 -464 0
v -480 -480 0
v -496 -480 0
v -496 -464 0
v -480 -464 0
v -464 -480 0
v -480 -480 0
v -480 -464 0
v -464 -464 0
v -448 -480 0
v -464 -480 0
v -464 -464 0
v -448 -464 0
v -432 -480 0
v -448 -480 0
v -448 -464 0
v -432 -464 0
v -416 -480 0
v -432 -480 0
v -432 -464 0
v -416 -464 0
v -400 -480 0
v -416 -480 0
v -416 -464 0
v -400 -464 0
v -384 -480 0
v -400 -480 0
v -400 -464 0
v -384 -464 0
v -368 -480 0
v -384 -480 0
v -384 -464 0
v -368 -464 0
v -352 -480 0
v -368 -480 0
v -368 -464 0
v -352 -464 0
v -336 -480 0
v -352 -480 0
v -352 -464 0
v -336 -464 0
v -320 -480 0
v -336 -480 0
v -336 -464 0
v -320 -464 0
v -512 -496 0
v -528 -496 0
v -528 -480 0
v -512 -480 0
v -496 -496 0
v -512 -496 0
v -512 -480 0
v -496 -480 0
v -480 -496 0
v -496 -496 0
v -496 -480 0
v -480 -480 0
v -464 -496 0
v -480 -496 0
v -480 -480 0
v -464 -480 0
v -448 -496 0
v -464 -496 0
v -464 -480 0
v -448 -480 0
v -432 -496 0
v -448 -496 0
v -448 -480 0
v -432 -480 0
v -416 -496 0
v -432 -496 0
v -432 -480 0
v -416 -480 0
v -400 -496 0
v -416 -496 0
v -416 -480 0
v -400 -480 0
v -384 -496 0
v -400 -496 0
v -400 -480 0
v -384 -480 0
v -368 -496 0
v -384 -496 0
v -384 -480 0
v -368 -480 0
v -352 -496 0
v -368 -496 0
v -368 -480 0
v -352 -480 0
v -336 -496 0
v -352 -496 0
v -352 -480 0
v -336 -480 0
v -320 -496 0
v -336 -496 0
v -336 -480 0
v -320 -480 0
v -512 -512 0
v -528 -512 0
v -528 -496 0
v -512 -496 0
v -496 -512 0
v -512 -512 0
v -512 -496 0
v -496 -496 0
v -480 -512 0
v -496 -512 0
v -496 -496 0
v -480 -496 0
v -464 -512 0
v -480 -512 0
v -480 -496 0
v -464 -496 0
v -448 -512 0
v -464 -512 0
v -464 -496 0
v -448 -496 0
v -432 -512 0
v -448 -512 0
v -448 -496 0
v -432 -496 0
v -416 -512 0
v -432 -512 0
v -432 -496 0
v -416 -496 0
v -400 -512 0
v -416 -512 0
v -416 -496 0
v -400 -496 0
v -384 -512 0
v -400 -512 0
v -400 -496 0
v -384 -496 0
v -368 -512 0
v -384 -512 0
v -384 -496 0
v -368 -496 0
v -352 -512 0
v -368 -512 0
v -368 -496 0
v -352 -496 0
v -336 -512 0
v -352 -512 0
v -352 -496 0
v -336 -496 0
v -512 -528 0
v -528 -528 0
v -528 -512 0
v -512 -512 0
v -496 -528 0
v -512 -528 0
v -512 -512 0
v -496 -512 0
v -480 -528 0
v -496 -528 0
v -496 -512 0
v -480 -512 0
v -464 -528 0
v -480 -528 0
v -480 -512 0
v -464 -512 0
v -448 -528 0
v -464 -528 0
v -464 -512 0
v -448 -512 0
v -432 -528 0
v -448 -528 0
v -448 -512 0
v -432 -512 0
v -416 -528 0
v -432 -528 0
v -432 -512 0
v -416 -512 0
v -400 -528 0
v -416 -528 0
v -416 -512 0
v -400 -512 0
v -384 -528 0
v -400 -528 0
v -400 -512 0
v -384 -512 0
v -368 -528 0
v -384 -528 0
v -384 -512 0
v -368 -512 0
v -352 -528 0
v -368 -528 0
v -368 -512 0
v -352 -512 0
v -336 -528 0
v -352 -528 0
v -352 -512 0
v -336 -512 0
v -496 -544 0
v -512 -544 0
v -512 -528 0
v -496 -528 0
v -480 -544 0
v -496 -544 0
v -496 -528 0
v -480 -528 0
v -464 -544 0
v -480 -544 0
v -480 -528 0
v -464 -528 0
v -448 -544 0
v -464 -544 0
v -464 -528 0
v -448 -528 0
v -432 -544 0
v -448 -544 0
v -448 -528 0
v -432 -528 0
v -416 -544 0
v -432 -544 0
v -432 -528 0
v -416 -528 0
v -400 -544 0
v -416 -544 0
v -416 -528 0
v -400 -528 0
v -384 -544 0
v -400 -544 0
v -400 -528 0
v -384 -528 0
v -496 -560 0
v -512 -560 0
v -512 -544 0
v -496 -544 0
v -480 -560 0
v -496 -560 0
v -496 -544 0
v -480 -544 0
v -464 -560 0
v -480 -560 0
v -480 -544 0
v -464 -544 0
v -448 -560 0
v -464 -560 0
v -464 -544 0
v -448 -544 0
v -432 -560 0
v -448 -560 0
v -448 -544 0
v -432 -544 0
v -416 -560 0
v -432 -560 0
v -432 -544 0
v -416 -544 0
v -400 -560 0
v -416 -560 0
v -416 -544 0
v -400 -544 0
v -384 -560 0
v -400 -560 0
v -400 -544 0
v -384 -544 0
v -496 -576 0
v -512 -576 0
v -512 -560 0
v -496 -560 0
v -480 -576 0
v -496 -576 0
v -496 -560 0
v -480 -560 0
v -464 -576 0
v -480 -576 0
v -480 -560 0
v -464 -560 0
v -448 -576 0
v -464 -576 0
v -464 -560 0
v -448 -560 0
v -432 -576 0
v -448 -576 0
v -448 -560 0
v -432 -560 0
v -416 -576 0
v -432 -576 0
v -432 -560 0
v -416 -560 0
v -400 -576 0
v -416 -576 0
v -416 -560 0
v -400 -560 0
v -496 -592 0
v -512 -592 0
v -512 -576 0
v -496 -576 0
v -480 -592 0
v -496 -592 0
v -496 -576 0
v -480 -576 0
v -464 -592 0
v -480 -592 0
v -480 -576 0
v -464 -576 0
v -448 -592 0
v -464 -592 0
v -464 -576 0
v -448 -576 0

# Texture cooridinates (Count = 76)
vt 0.1580579 0.6787072
vt 0.1745868 0.6787072
vt 0.1745868 0.7091255
vt 0.1580579 0.7091255
vt 0.1404959 0.6787072
vt 0.1570248 0.6787072
vt 0.1570248 0.7091255
vt 0.1404959 0.7091255
vt 0.1229339 0.6787072
vt 0.1394628 0.6787072
vt 0.1394628 0.7091255
vt 0.1229339 0.7091255
vt 0.1580579 0.6463878
vt 0.1745868 0.6463878
vt 0.1745868 0.6768061
vt 0.1580579 0.6768061
vt 0.1404959 0.6463878
vt 0.1570248 0.6463878
vt 0.1570248 0.6768061
vt 0.1404959 0.6768061
vt 0.1053719 0.6463878
vt 0.1219008 0.6463878
vt 0.1219008 0.6768061
vt 0.1053719 0.6768061
vt 0.1229339 0.6463878
vt 0.1394628 0.6463878
vt 0.1394628 0.6768061
vt 0.1229339 0.6768061
vt 0.08780992 0.6463878
vt 0.1043388 0.6463878
vt 0.1043388 0.6768061
vt 0.08780992 0.6768061
vt 0.1229339 0.1292776
vt 0.1394628 0.1292776
vt 0.1394628 0.1596958
vt 0.1229339 0.1596958
vt 0.3161157 0.4524715
vt 0.3326446 0.4524715
vt 0.3326446 0.4828897
vt 0.3161157 0.4828897
vt 0.2283058 0.2908745
vt 0.2448347 0.2908745
vt 0.2448347 0.3212928
vt 0.2283058 0.3212928
vt 0.3336777 0.4847909
vt 0.3502066 0.4847909
vt 0.3502066 0.5152091
vt 0.3336777 0.5152091
vt 0.3161157 0.4847909
vt 0.3326446 0.4847909
vt 0.3326446 0.5152091
vt 0.3161157 0.5152091
vt 0.2985537 0.4847909
vt 0.3150826 0.4847909
vt 0.3150826 0.5152091
vt 0.2985537 0.5152091
vt 0.1580579 0.6140684
vt 0.1745868 0.6140684
vt 0.1745868 0.6444867
vt 0.1580579 0.6444867
vt 0.08780992 0.6787072
vt 0.1043388 0.6787072
vt 0.1043388 0.7091255
vt 0.08780992 0.7091255
vt 0.1053719 0.6787072
vt 0.1219008 0.6787072
vt 0.1219008 0.7091255
vt 0.1053719 0.7091255
vt 0.1229339 0.6140684
vt 0.1394628 0.6140684
vt 0.1394628 0.6444867
vt 0.1229339 0.6444867
vt 0.1404959 0.6140684
vt 0.1570248 0.6140684
vt 0.1570248 0.6444867
vt 0.1404959 0.6444867

# Normal
vn 0 0 -1

# Mesh description
g testarea_mesh_0002

# Faces
f 1/1/1 2/2/1 3/3/1 4/4/1
f 5/5/1 6/6/1 7/7/1 8/8/1
f 9/5/1 10/6/1 11/7/1 12/8/1
f 13/9/1 14/10/1 15/11/1 16/12/1
f 17/13/1 18/14/1 19/15/1 20/16/1
f 21/17/1 22/18/1 23/19/1 24/20/1
f 25/17/1 26/18/1 27/19/1 28/20/1
f 29/21/1 30/22/1 31/23/1 32/24/1
f 33/5/1 34/6/1 35/7/1 36/8/1
f 37/9/1 38/10/1 39/11/1 40/12/1
f 41/13/1 42/14/1 43/15/1 44/16/1
f 45/17/1 46/18/1 47/19/1 48/20/1
f 49/17/1 50/18/1 51/19/1 52/20/1
f 53/17/1 54/18/1 55/19/1 56/20/1
f 57/17/1 58/18/1 59/19/1 60/20/1
f 61/25/1 62/26/1 63/27/1 64/28/1
f 65/13/1 66/14/1 67/15/1 68/16/1
f 69/17/1 70/18/1 71/19/1 72/20/1
f 73/17/1 74/18/1 75/19/1 76/20/1
f 77/17/1 78/18/1 79/19/1 80/20/1
f 81/17/1 82/18/1 83/19/1 84/20/1
f 85/21/1 86/22/1 87/23/1 88/24/1
f 89/9/1 90/10/1 91/11/1 92/12/1
f 93/1/1 94/2/1 95/3/1 96/4/1
f 97/29/1 98/30/1 99/31/1 100/32/1
f 101/17/1 102/18/1 103/19/1 104/20/1
f 105/17/1 106/18/1 107/19/1 108/20/1
f 109/17/1 110/18/1 111/19/1 112/20/1
f 113/17/1 114/18/1 115/19/1 116/20/1
f 117/17/1 118/18/1 119/19/1 120/20/1
f 121/25/1 122/26/1 123/27/1 124/28/1
f 125/33/1 126/34/1 127/35/1 128/36/1
f 129/37/1 130/38/1 131/39/1 132/40/1
f 133/41/1 134/42/1 135/43/1 136/44/1
f 137/13/1 138/14/1 139/15/1 140/16/1
f 141/17/1 142/18/1 143/19/1 144/20/1
f 145/17/1 146/18/1 147/19/1 148/20/1
f 149/17/1 150/18/1 151/19/1 152/20/1
f 153/17/1 154/18/1 155/19/1 156/20/1
f 157/17/1 158/18/1 159/19/1 160/20/1
f 161/17/1 162/18/1 163/19/1 164/20/1
f 165/21/1 166/22/1 167/23/1 168/24/1
f 169/5/1 170/6/1 171/7/1 172/8/1
f 173/9/1 174/10/1 175/11/1 176/12/1
f 177/45/1 178/46/1 179/47/1 180/48/1
f 181/49/1 182/50/1 183/51/1 184/52/1
f 185/53/1 186/54/1 187/55/1 188/56/1
f 189/1/1 190/2/1 191/3/1 192/4/1
f 193/29/1 194/30/1 195/31/1 196/32/1
f 197/17/1 198/18/1 199/19/1 200/20/1
f 201/17/1 202/18/1 203/19/1 204/20/1
f 205/17/1 206/18/1 207/19/1 208/20/1
f 209/17/1 210/18/1 211/19/1 212/20/1
f 213/17/1 214/18/1 215/19/1 216/20/1
f 217/17/1 218/18/1 219/19/1 220/20/1
f 221/17/1 222/18/1 223/19/1 224/20/1
f 225/17/1 226/18/1 227/19/1 228/20/1
f 229/25/1 230/26/1 231/27/1 232/28/1
f 233/1/1 234/2/1 235/3/1 236/4/1
f 237/5/1 238/6/1 239/7/1 240/8/1
f 241/5/1 242/6/1 243/7/1 244/8/1
f 245/5/1 246/6/1 247/7/1 248/8/1
f 249/29/1 250/30/1 251/31/1 252/32/1
f 253/17/1 254/18/1 255/19/1 256/20/1
f 257/17/1 258/18/1 259/19/1 260/20/1
f 261/17/1 262/18/1 263/19/1 264/20/1
f 265/17/1 266/18/1 267/19/1 268/20/1
f 269/17/1 270/18/1 271/19/1 272/20/1
f 273/17/1 274/18/1 275/19/1 276/20/1
f 277/17/1 278/18/1 279/19/1 280/20/1
f 281/17/1 282/18/1 283/19/1 284/20/1
f 285/17/1 286/18/1 287/19/1 288/20/1
f 289/25/1 290/26/1 291/27/1 292/28/1
f 293/13/1 294/14/1 295/15/1 296/16/1
f 297/17/1 298/18/1 299/19/1 300/20/1
f 301/17/1 302/18/1 303/19/1 304/20/1
f 305/17/1 306/18/1 307/19/1 308/20/1
f 309/17/1 310/18/1 311/19/1 312/20/1
f 313/17/1 314/18/1 315/19/1 316/20/1
f 317/17/1 318/18/1 319/19/1 320/20/1
f 321/17/1 322/18/1 323/19/1 324/20/1
f 325/17/1 326/18/1 327/19/1 328/20/1
f 329/17/1 330/18/1 331/19/1 332/20/1
f 333/17/1 334/18/1 335/19/1 336/20/1
f 337/17/1 338/18/1 339/19/1 340/20/1
f 341/17/1 342/18/1 343/19/1 344/20/1
f 345/17/1 346/18/1 347/19/1 348/20/1
f 349/25/1 350/26/1 351/27/1 352/28/1
f 353/57/1 354/58/1 355/59/1 356/60/1
f 357/61/1 358/62/1 359/63/1 360/64/1
f 361/17/1 362/18/1 363/19/1 364/20/1
f 365/17/1 366/18/1 367/19/1 368/20/1
f 369/17/1 370/18/1 371/19/1 372/20/1
f 373/17/1 374/18/1 375/19/1 376/20/1
f 377/17/1 378/18/1 379/19/1 380/20/1
f 381/17/1 382/18/1 383/19/1 384/20/1
f 385/17/1 386/18/1 387/19/1 388/20/1
f 389/17/1 390/18/1 391/19/1 392/20/1
f 393/17/1 394/18/1 395/19/1 396/20/1
f 397/17/1 398/18/1 399/19/1 400/20/1
f 401/17/1 402/18/1 403/19/1 404/20/1
f 405/17/1 406/18/1 407/19/1 408/20/1
f 409/25/1 410/26/1 411/27/1 412/28/1
f 413/13/1 414/14/1 415/15/1 416/16/1
f 417/17/1 418/18/1 419/19/1 420/20/1
f 421/17/1 422/18/1 423/19/1 424/20/1
f 425/17/1 426/18/1 427/19/1 428/20/1
f 429/17/1 430/18/1 431/19/1 432/20/1
f 433/17/1 434/18/1 435/19/1 436/20/1
f 437/17/1 438/18/1 439/19/1 440/20/1
f 441/17/1 442/18/1 443/19/1 444/20/1
f 445/17/1 446/18/1 447/19/1 448/20/1
f 449/17/1 450/18/1 451/19/1 452/20/1
f 453/17/1 454/18/1 455/19/1 456/20/1
f 457/17/1 458/18/1 459/19/1 460/20/1
f 461/17/1 462/18/1 463/19/1 464/20/1
f 465/25/1 466/26/1 467/27/1 468/28/1
f 469/13/1 470/14/1 471/15/1 472/16/1
f 473/17/1 474/18/1 475/19/1 476/20/1
f 477/17/1 478/18/1 479/19/1 480/20/1
f 481/17/1 482/18/1 483/19/1 484/20/1
f 485/17/1 486/18/1 487/19/1 488/20/1
f 489/17/1 490/18/1 491/19/1 492/20/1
f 493/17/1 494/18/1 495/19/1 496/20/1
f 497/17/1 498/18/1 499/19/1 500/20/1
f 501/17/1 502/18/1 503/19/1 504/20/1
f 505/17/1 506/18/1 507/19/1 508/20/1
f 509/17/1 510/18/1 511/19/1 512/20/1
f 513/17/1 514/18/1 515/19/1 516/20/1
f 517/65/1 518/66/1 519/67/1 520/68/1
f 521/69/1 522/70/1 523/71/1 524/72/1
f 525/13/1 526/14/1 527/15/1 528/16/1
f 529/17/1 530/18/1 531/19/1 532/20/1
f 533/17/1 534/18/1 535/19/1 536/20/1
f 537/17/1 538/18/1 539/19/1 540/20/1
f 541/17/1 542/18/1 543/19/1 544/20/1
f 545/17/1 546/18/1 547/19/1 548/20/1
f 549/17/1 550/18/1 551/19/1 552/20/1
f 553/17/1 554/18/1 555/19/1 556/20/1
f 557/17/1 558/18/1 559/19/1 560/20/1
f 561/17/1 562/18/1 563/19/1 564/20/1
f 565/17/1 566/18/1 567/19/1 568/20/1
f 569/17/1 570/18/1 571/19/1 572/20/1
f 573/25/1 574/26/1 575/27/1 576/28/1
f 577/13/1 578/14/1 579/15/1 580/16/1
f 581/17/1 582/18/1 583/19/1 584/20/1
f 585/17/1 586/18/1 587/19/1 588/20/1
f 589/17/1 590/18/1 591/19/1 592/20/1
f 593/17/1 594/18/1 595/19/1 596/20/1
f 597/17/1 598/18/1 599/19/1 600/20/1
f 601/17/1 602/18/1 603/19/1 604/20/1
f 605/17/1 606/18/1 607/19/1 608/20/1
f 609/17/1 610/18/1 611/19/1 612/20/1
f 613/17/1 614/18/1 615/19/1 616/20/1
f 617/17/1 618/18/1 619/19/1 620/20/1
f 621/65/1 622/66/1 623/67/1 624/68/1
f 625/69/1 626/70/1 627/71/1 628/72/1
f 629/13/1 630/14/1 631/15/1 632/16/1
f 633/17/1 634/18/1 635/19/1 636/20/1
f 637/17/1 638/18/1 639/19/1 640/20/1
f 641/17/1 642/18/1 643/19/1 644/20/1
f 645/17/1 646/18/1 647/19/1 648/20/1
f 649/17/1 650/18/1 651/19/1 652/20/1
f 653/17/1 654/18/1 655/19/1 656/20/1
f 657/17/1 658/18/1 659/19/1 660/20/1
f 661/17/1 662/18/1 663/19/1 664/20/1
f 665/17/1 666/18/1 667/19/1 668/20/1
f 669/17/1 670/18/1 671/19/1 672/20/1
f 673/25/1 674/26/1 675/27/1 676/28/1
f 677/57/1 678/58/1 679/59/1 680/60/1
f 681/61/1 682/62/1 683/63/1 684/64/1
f 685/17/1 686/18/1 687/19/1 688/20/1
f 689/17/1 690/18/1 691/19/1 692/20/1
f 693/17/1 694/18/1 695/19/1 696/20/1
f 697/17/1 698/18/1 699/19/1 700/20/1
f 701/17/1 702/18/1 703/19/1 704/20/1
f 705/17/1 706/18/1 707/19/1 708/20/1
f 709/65/1 710/66/1 711/67/1 712/68/1
f 713/73/1 714/74/1 715/75/1 716/76/1
f 717/73/1 718/74/1 719/75/1 720/76/1
f 721/69/1 722/70/1 723/71/1 724/72/1
f 725/13/1 726/14/1 727/15/1 728/16/1
f 729/17/1 730/18/1 731/19/1 732/20/1
f 733/17/1 734/18/1 735/19/1 736/20/1
f 737/17/1 738/18/1 739/19/1 740/20/1
f 741/17/1 742/18/1 743/19/1 744/20/1
f 745/17/1 746/18/1 747/19/1 748/20/1
f 749/17/1 750/18/1 751/19/1 752/20/1
f 753/25/1 754/26/1 755/27/1 756/28/1
f 757/13/1 758/14/1 759/15/1 760/16/1
f 761/17/1 762/18/1 763/19/1 764/20/1
f 765/17/1 766/18/1 767/19/1 768/20/1
f 769/17/1 770/18/1 771/19/1 772/20/1
f 773/17/1 774/18/1 775/19/1 776/20/1
f 777/17/1 778/18/1 779/19/1 780/20/1
f 781/65/1 782/66/1 783/67/1 784/68/1
f 785/69/1 786/70/1 787/71/1 788/72/1
f 789/13/1 790/14/1 791/15/1 792/16/1
f 793/17/1 794/18/1 795/19/1 796/20/1
f 797/17/1 798/18/1 799/19/1 800/20/1
f 801/65/1 802/66/1 803/67/1 804/68/1
f 805/73/1 806/74/1 807/75/1 808/76/1
f 809/73/1 810/74/1 811/75/1 812/76/1
f 813/69/1 814/70/1 815/71/1 816/72/1
f 817/57/1 818/58/1 819/59/1 820/60/1
f 821/73/1 822/74/1 823/75/1 824/76/1
f 825/73/1 826/74/1 827/75/1 828/76/1
f 829/69/1 830/70/1 831/71/1 832/72/1

